<svg xmlns="http://www.w3.org/2000/svg" viewBox="0 0 200 200" width="200" height="200">
  <rect width="200" height="200" rx="32" fill="#f5f5f7" stroke="#d1d5db" stroke-width="1"/>
  <!-- Phone frame -->
  <rect x="60" y="35" width="80" height="130" rx="12" fill="none" stroke="#059669" stroke-width="2" opacity="0.6"/>
  <rect x="85" y="40" width="30" height="4" rx="2" fill="#059669" opacity="0.3"/>
  <!-- Mini candlesticks inside phone -->
  <line x1="78" y1="70" x2="78" y2="110" stroke="#059669" stroke-width="1.5" opacity="0.5"/>
  <rect x="75" y="78" width="6" height="18" rx="1" fill="#059669" opacity="0.5"/>
  <line x1="92" y1="65" x2="92" y2="105" stroke="#059669" stroke-width="1.5" opacity="0.5"/>
  <rect x="89" y="70" width="6" height="20" rx="1" fill="#059669" opacity="0.6"/>
  <line x1="106" y1="75" x2="106" y2="115" stroke="#dc2626" stroke-width="1.5" opacity="0.5"/>
  <rect x="103" y="82" width="6" height="22" rx="1" fill="#dc2626" opacity="0.5"/>
  <line x1="120" y1="60" x2="120" y2="100" stroke="#059669" stroke-width="1.5" opacity="0.5"/>
  <rect x="117" y="65" width="6" height="18" rx="1" fill="#059669" opacity="0.7"/>
  <!-- Trend line -->
  <polyline points="78,90 92,80 106,95 120,75" fill="none" stroke="#059669" stroke-width="1.5" opacity="0.3"/>
  <!-- Eye accent -->
  <circle cx="100" cy="140" r="5" fill="none" stroke="#059669" stroke-width="1.5" opacity="0.4"/>
  <circle cx="100" cy="140" r="2" fill="#059669" opacity="0.4"/>
</svg>
